<mxfile host="app.diagrams.net" modified="2023-11-27T10:05:41.253Z" agent="Mozilla/5.0 (Linux; Android 13; SAMSUNG SM-A037F) AppleWebKit/537.36 (KHTML, like Gecko) SamsungBrowser/23.0 Chrome/115.0.0.0 Mobile Safari/537.36" etag="0eD6zDHiwtLkU1q28L-N" version="22.1.4" type="github">
  <diagram name="Страница — 1" id="moDA7ZBNVyYRiL3DHnte">
    <mxGraphModel dx="381" dy="641" grid="0" gridSize="10" guides="1" tooltips="1" connect="1" arrows="1" fold="1" page="0" pageScale="1" pageWidth="827" pageHeight="1169" math="0" shadow="0">
      <root>
        <mxCell id="0" />
        <mxCell id="1" parent="0" />
        <mxCell id="fjufyDnPr3VG_Up6iFV5-3" value="" style="edgeStyle=none;curved=1;rounded=0;orthogonalLoop=1;jettySize=auto;html=1;fontSize=12;startSize=8;endSize=8;" edge="1" parent="1" source="fjufyDnPr3VG_Up6iFV5-1" target="fjufyDnPr3VG_Up6iFV5-2">
          <mxGeometry relative="1" as="geometry" />
        </mxCell>
        <mxCell id="fjufyDnPr3VG_Up6iFV5-1" value="Ввод x, y" style="whiteSpace=wrap;html=1;fontSize=16;" vertex="1" parent="1">
          <mxGeometry x="140" y="170" width="120" height="60" as="geometry" />
        </mxCell>
        <mxCell id="fjufyDnPr3VG_Up6iFV5-5" value="" style="edgeStyle=none;curved=1;rounded=0;orthogonalLoop=1;jettySize=auto;html=1;fontSize=12;startSize=8;endSize=8;" edge="1" parent="1" source="fjufyDnPr3VG_Up6iFV5-2" target="fjufyDnPr3VG_Up6iFV5-4">
          <mxGeometry relative="1" as="geometry" />
        </mxCell>
        <mxCell id="fjufyDnPr3VG_Up6iFV5-17" value="" style="edgeStyle=none;curved=1;rounded=0;orthogonalLoop=1;jettySize=auto;html=1;fontSize=12;startSize=8;endSize=8;" edge="1" parent="1" source="fjufyDnPr3VG_Up6iFV5-2" target="fjufyDnPr3VG_Up6iFV5-16">
          <mxGeometry relative="1" as="geometry" />
        </mxCell>
        <mxCell id="fjufyDnPr3VG_Up6iFV5-2" value="Если 1000 &amp;lt;= x &amp;lt;= 9999 и 1000 &amp;lt;= y &amp;lt;= 9999 и x &amp;lt;= y" style="rhombus;whiteSpace=wrap;html=1;fontSize=16;" vertex="1" parent="1">
          <mxGeometry x="83" y="275" width="234" height="105" as="geometry" />
        </mxCell>
        <mxCell id="fjufyDnPr3VG_Up6iFV5-7" value="" style="edgeStyle=none;curved=1;rounded=0;orthogonalLoop=1;jettySize=auto;html=1;fontSize=12;startSize=8;endSize=8;" edge="1" parent="1" source="fjufyDnPr3VG_Up6iFV5-4" target="fjufyDnPr3VG_Up6iFV5-6">
          <mxGeometry relative="1" as="geometry" />
        </mxCell>
        <mxCell id="fjufyDnPr3VG_Up6iFV5-4" value="Цикл от x до y" style="whiteSpace=wrap;html=1;fontSize=16;" vertex="1" parent="1">
          <mxGeometry x="393" y="292" width="120" height="71" as="geometry" />
        </mxCell>
        <mxCell id="fjufyDnPr3VG_Up6iFV5-8" style="edgeStyle=none;curved=1;rounded=0;orthogonalLoop=1;jettySize=auto;html=1;entryX=1;entryY=0.5;entryDx=0;entryDy=0;fontSize=12;startSize=8;endSize=8;exitX=1;exitY=0.5;exitDx=0;exitDy=0;" edge="1" parent="1" source="fjufyDnPr3VG_Up6iFV5-11" target="fjufyDnPr3VG_Up6iFV5-4">
          <mxGeometry relative="1" as="geometry">
            <mxPoint x="511" y="355" as="targetPoint" />
            <Array as="points" />
          </mxGeometry>
        </mxCell>
        <mxCell id="fjufyDnPr3VG_Up6iFV5-10" value="" style="edgeStyle=none;curved=1;rounded=0;orthogonalLoop=1;jettySize=auto;html=1;fontSize=12;startSize=8;endSize=8;" edge="1" parent="1" source="fjufyDnPr3VG_Up6iFV5-6" target="fjufyDnPr3VG_Up6iFV5-9">
          <mxGeometry relative="1" as="geometry" />
        </mxCell>
        <mxCell id="fjufyDnPr3VG_Up6iFV5-6" value="Если 1 и 2 цифра == 4 и 3 цифре." style="rhombus;whiteSpace=wrap;html=1;fontSize=16;" vertex="1" parent="1">
          <mxGeometry x="340" y="461.5" width="212" height="123" as="geometry" />
        </mxCell>
        <mxCell id="fjufyDnPr3VG_Up6iFV5-14" style="edgeStyle=none;curved=1;rounded=0;orthogonalLoop=1;jettySize=auto;html=1;fontSize=12;startSize=8;endSize=8;exitX=1;exitY=0.75;exitDx=0;exitDy=0;" edge="1" parent="1" source="fjufyDnPr3VG_Up6iFV5-9">
          <mxGeometry relative="1" as="geometry">
            <mxPoint x="526.5292087131077" y="332.1134694417317" as="targetPoint" />
            <Array as="points">
              <mxPoint x="634" y="497" />
            </Array>
          </mxGeometry>
        </mxCell>
        <mxCell id="fjufyDnPr3VG_Up6iFV5-9" value="Вывести число" style="whiteSpace=wrap;html=1;fontSize=16;" vertex="1" parent="1">
          <mxGeometry x="356" y="675" width="160" height="76" as="geometry" />
        </mxCell>
        <mxCell id="fjufyDnPr3VG_Up6iFV5-12" value="" style="edgeStyle=none;curved=1;rounded=0;orthogonalLoop=1;jettySize=auto;html=1;entryX=1;entryY=0.5;entryDx=0;entryDy=0;fontSize=12;startSize=8;endSize=8;exitX=1;exitY=0.5;exitDx=0;exitDy=0;" edge="1" parent="1" source="fjufyDnPr3VG_Up6iFV5-6" target="fjufyDnPr3VG_Up6iFV5-11">
          <mxGeometry relative="1" as="geometry">
            <mxPoint x="552" y="523" as="sourcePoint" />
            <mxPoint x="513" y="328" as="targetPoint" />
            <Array as="points">
              <mxPoint x="632" y="386" />
            </Array>
          </mxGeometry>
        </mxCell>
        <mxCell id="fjufyDnPr3VG_Up6iFV5-11" value="Нет" style="text;html=1;align=center;verticalAlign=middle;resizable=0;points=[];autosize=1;strokeColor=none;fillColor=none;fontSize=16;" vertex="1" parent="1">
          <mxGeometry x="565" y="356" width="46" height="31" as="geometry" />
        </mxCell>
        <mxCell id="fjufyDnPr3VG_Up6iFV5-13" value="Да" style="text;html=1;align=center;verticalAlign=middle;resizable=0;points=[];autosize=1;strokeColor=none;fillColor=none;fontSize=16;" vertex="1" parent="1">
          <mxGeometry x="443" y="603" width="39" height="31" as="geometry" />
        </mxCell>
        <mxCell id="fjufyDnPr3VG_Up6iFV5-15" value="Да" style="text;strokeColor=none;align=center;fillColor=none;html=1;verticalAlign=middle;whiteSpace=wrap;rounded=0;fontSize=16;" vertex="1" parent="1">
          <mxGeometry x="322" y="341" width="60" height="30" as="geometry" />
        </mxCell>
        <mxCell id="fjufyDnPr3VG_Up6iFV5-16" value="Ошибка" style="whiteSpace=wrap;html=1;fontSize=16;" vertex="1" parent="1">
          <mxGeometry x="140" y="419" width="120" height="60" as="geometry" />
        </mxCell>
      </root>
    </mxGraphModel>
  </diagram>
</mxfile>
